<?xml version="1.0" standalone="no"?>
<!DOCTYPE svg PUBLIC "-//W3C//DTD SVG 20010904//EN"
 "http://www.w3.org/TR/2001/REC-SVG-20010904/DTD/svg10.dtd">
<svg version="1.0" xmlns="http://www.w3.org/2000/svg"
 width="500.000000pt" height="500.000000pt" viewBox="0 0 500.000000 500.000000"
 preserveAspectRatio="xMidYMid meet">
<metadata>
Created by potrace 1.11, written by Peter Selinger 2001-2013
</metadata>
<g transform="translate(0.000000,500.000000) scale(0.100000,-0.100000)"
fill="#000000" stroke="none">
<path d="M262 4990 c-93 -21 -184 -97 -230 -189 l-27 -56 0 -2245 0 -2245 27
-55 c35 -71 97 -133 167 -168 l56 -27 2215 -3 c1600 -1 2228 1 2263 9 70 16
117 42 165 90 37 38 75 99 91 149 11 33 10 4432 -1 4484 -21 103 -87 184 -187
234 l-56 27 -2225 1 c-1224 1 -2240 -2 -2258 -6z m1814 -769 c8 -1 12 -147 13
-527 1 -290 3 -529 5 -533 2 -3 186 -6 408 -6 l403 0 3 533 2 532 23 1 c12 0
307 1 654 2 l633 2 0 -45 c1 -77 1 -3364 1 -3385 -1 -20 -8 -20 -655 -20
l-655 0 1 280 c0 154 -1 395 -1 535 l-1 255 -407 0 -408 0 -3 -533 c-1 -292
-6 -532 -10 -533 -42 -4 -1293 -1 -1297 3 -3 3 -6 776 -7 1717 -1 1232 1 1714
9 1719 8 5 1191 7 1289 3z"/>
</g>
</svg>
