<svg width="244" height="284" viewBox="0 0 244 284" version="1.1" xmlns="http://www.w3.org/2000/svg" xmlns:xlink="http://www.w3.org/1999/xlink">
<title>ezk</title>
<desc>Created using Figma</desc>
<g id="Canvas" transform="translate(7 647)">
<g id="ezk">
<g id="path16">
<use xlink:href="#path0_fill" transform="matrix(0.133333 0 0 -0.133333 54.2339 -484.777)" fill="#145798"/>
</g>
<g id="path18">
<use xlink:href="#path1_fill" transform="matrix(0.133333 0 0 -0.133333 -6.50881 -363.292)" fill="#DD1634"/>
</g>
</g>
</g>
<defs>
<path id="path0_fill" fill-rule="evenodd" d="M 101.236 303.71L 101.236 241.06C 101.236 164.11 164.116 101.23 241.056 101.23L 759.286 101.23C 787.166 101.23 809.896 78.49 809.896 50.62C 809.896 22.73 787.166 -2.92969e-05 759.286 -2.92969e-05L 241.056 -2.92969e-05C 108.236 -2.92969e-05 2.83203e-05 108.23 2.83203e-05 241.06L 2.83203e-05 467.6C 2.83203e-05 600.42 108.226 708.66 241.056 708.66L 670.076 708.66C 802.906 708.66 911.136 600.42 911.136 467.6L 911.136 354.33C 911.136 326.45 888.396 303.71 860.516 303.71L 101.236 303.71ZM 809.896 404.95L 809.896 467.6C 809.896 544.54 747.026 607.42 670.076 607.42L 241.056 607.42C 164.106 607.42 101.236 544.55 101.236 467.6L 101.236 404.95L 809.896 404.95Z"/>
<path id="path1_fill" fill-rule="evenodd" d="M 1569.19 101.234C 1537.4 143.539 1518.57 196.117 1518.57 253.094C 1518.57 310.066 1537.4 362.645 1569.19 404.949L 253.097 404.949C 169.214 404.949 101.242 336.973 101.242 253.094C 101.242 169.211 169.214 101.234 253.097 101.234L 1569.19 101.234ZM 1771.66 404.949C 1687.78 404.949 1619.8 336.977 1619.8 253.094C 1619.8 169.211 1687.78 101.234 1771.66 101.234C 1799.54 101.234 1822.28 78.496 1822.28 50.617C 1822.28 22.734 1799.54 7.32422e-07 1771.66 7.32422e-07L 253.097 7.32422e-07C 113.336 7.32422e-07 -9.52148e-06 113.332 -9.52148e-06 253.094L -9.52148e-06 1872.89C -9.52148e-06 2012.65 113.336 2125.99 253.097 2125.99L 1771.66 2125.99C 1799.54 2125.99 1822.28 2103.25 1822.28 2075.37L 1822.28 455.566C 1822.28 427.688 1799.54 404.949 1771.66 404.949L 1771.66 404.949ZM 1721.04 506.184L 1721.04 2024.75L 253.097 2024.75C 169.214 2024.75 101.242 1956.78 101.242 1872.89L 101.242 455.57C 143.543 487.352 196.125 506.184 253.097 506.184L 1721.04 506.184"/>
</defs>
</svg>
