<svg id="Vrstva_1" data-name="Vrstva 1" xmlns="http://www.w3.org/2000/svg" viewBox="0 0 283.46 283.46"><defs><style>.cls-1{fill:#c60c30;}.cls-1,.cls-3{fill-rule:evenodd;}.cls-2{fill:#fff;}.cls-3,.cls-4{fill:#005293;}</style></defs><title>zdravie_na_Slovensku</title><path class="cls-1" d="M150.48,53.41a62.45,62.45,0,0,1,93.39,82.71L155.71,246.29a6.69,6.69,0,0,1-10.45-8.37l88.16-110.16a49.07,49.07,0,1,0-77.59-60.08,6.7,6.7,0,0,1-10.7,0,49.07,49.07,0,1,0-77.59,60.08,6.69,6.69,0,0,1-10.45,8.36,62.45,62.45,0,0,1,93.39-82.71"/><path class="cls-2" d="M150.46,249.75a7.64,7.64,0,0,1-6-12.43l88.16-110.16a47.6,47.6,0,0,0,10.53-30,48.11,48.11,0,0,0-86.6-28.86,7.67,7.67,0,0,1-12.24,0,48.11,48.11,0,1,0-76.07,58.9,7.65,7.65,0,0,1-12,9.56,63.42,63.42,0,0,1,49.53-103,62.91,62.91,0,0,1,44.61,18.34,63.41,63.41,0,0,1,108,45.07,63.62,63.62,0,0,1-13.88,39.6L156.45,246.89a7.6,7.6,0,0,1-5.13,2.82A8.12,8.12,0,0,1,150.46,249.75ZM195.09,47.09a50.09,50.09,0,0,1,50,50,49.49,49.49,0,0,1-11,31.24L146,238.52a5.73,5.73,0,1,0,9,7.17l88.16-110.17a61.49,61.49,0,0,0-48-99.89,61,61,0,0,0-43.92,18.46l-.69.7-.69-.7a61.49,61.49,0,0,0-105.41,43,61.69,61.69,0,0,0,13.46,38.4,5.72,5.72,0,0,0,3.85,2.11,5.58,5.58,0,0,0,4.21-1.22,5.73,5.73,0,0,0,.89-8,49.49,49.49,0,0,1-11-31.24,50,50,0,0,1,90.06-30,5.73,5.73,0,0,0,9.16,0A49.68,49.68,0,0,1,195.09,47.09Z"/><path class="cls-3" d="M95.31,194.81l20.54,9.5A19.15,19.15,0,0,1,127,221.92V242.3a2.78,2.78,0,0,1-5.56,0V221.92a13.59,13.59,0,0,0-8-12.58l-23.77-11a2.77,2.77,0,0,1-.79-4.46,16.68,16.68,0,0,0,4.77-11.7V171.06a16.7,16.7,0,1,0-33.4,0v11.13A16.7,16.7,0,0,0,77,198.86a2.79,2.79,0,0,1,0,5.57,22.26,22.26,0,0,1-22.26-22.26V171a22.26,22.26,0,1,1,44.52,0v11.09a22.25,22.25,0,0,1-3.93,12.66"/><path class="cls-4" d="M124.21,247.38a5.1,5.1,0,0,1-5.09-5.08V221.91a11.22,11.22,0,0,0-6.64-10.49l-23.75-11a5.09,5.09,0,0,1-1.46-8.17,14.3,14.3,0,0,0,4.11-10.08V171.06a14.4,14.4,0,1,0-28.79,0v11.13A14.41,14.41,0,0,0,77,196.56a5.09,5.09,0,0,1,0,10.17,24.59,24.59,0,0,1-24.56-24.56V171a24.56,24.56,0,1,1,49.12,0v11.09a24.46,24.46,0,0,1-2.92,11.65l18.19,8.42a21.33,21.33,0,0,1,12.48,19.69V242.3A5.09,5.09,0,0,1,124.21,247.38ZM77,152a19,19,0,0,1,19,19v11.09a18.89,18.89,0,0,1-5.43,13.31.42.42,0,0,0-.13.42.45.45,0,0,0,.28.36l23.74,11a15.89,15.89,0,0,1,9.29,14.66V242.3c0,.51,1,.52,1,0V221.91a16.82,16.82,0,0,0-9.83-15.52l-23-10.64,1.55-2.25a19.85,19.85,0,0,0,3.53-11.35V171.06A20,20,0,1,0,57,171v11.13a20,20,0,0,0,20,20,.49.49,0,0,0,0-1,19,19,0,0,1-19-19V171A19,19,0,0,1,77,152Z"/><path class="cls-3" d="M27.26,242.3V221.92a19.15,19.15,0,0,1,11.15-17.61l11.14-5.48a2.78,2.78,0,0,1,2.38,5l-11.14,5.48a13.59,13.59,0,0,0-8,12.58V242.3a2.79,2.79,0,0,1-5.57,0"/><path class="cls-4" d="M30,247.38A5.09,5.09,0,0,1,25,242.3V221.91a21.32,21.32,0,0,1,12.46-19.68l11.11-5.46a5.08,5.08,0,1,1,4.39,9.17L41.81,211.4a11.26,11.26,0,0,0-6.68,10.51V242.3A5.09,5.09,0,0,1,30,247.38Zm19.51-48.55,1,2.07-11.14,5.47a16.83,16.83,0,0,0-9.86,15.54V242.3c0,.53.95.52,1,0V221.91a15.88,15.88,0,0,1,9.27-14.65l11.11-5.46a.5.5,0,0,0,.26-.66Z"/></svg>