<svg width="283" height="284" viewBox="0 0 283 284" version="1.1" xmlns="http://www.w3.org/2000/svg" xmlns:xlink="http://www.w3.org/1999/xlink">
<title>pripojenie</title>
<desc>Created using Figma</desc>
<g id="Canvas" transform="translate(1343 647)">
<g id="pripojenie">
<g id="Group">
<g id="Group">
<g id="Group">
<g id="Vector">
<use xlink:href="#path0_fill" transform="matrix(13.6502 0 0 13.6502 -1255.9 -647)" fill="#005293"/>
</g>
</g>
<g id="Group">
<g id="Vector">
<use xlink:href="#path1_fill" transform="matrix(13.6502 0 0 13.6502 -1343 -526.016)" fill="#C60C30"/>
</g>
</g>
</g>
</g>
</g>
</g>
<defs>
<path id="path0_fill" d="M 7.21797 8.19492L 12.3689 10.636C 13.604 11.2211 14.3512 12.4024 14.3512 13.7704L 14.3512 20.3102C 14.3512 20.5833 14.1289 20.8054 13.8561 20.8054C 13.5838 20.8054 13.3614 20.5833 13.3614 20.3102L 13.3614 13.7704C 13.3614 12.7857 12.835 11.953 11.9459 11.5317L 6.22135 8.81857C 6.07222 8.74783 5.97505 8.62092 5.94595 8.45811C 5.91686 8.2953 5.96414 8.14238 6.0795 8.02379C 6.62665 7.46619 6.92803 6.72342 6.92803 5.94216L 6.92803 3.96768C 6.92803 2.3261 5.59937 0.99088 3.95895 0.99088C 2.31904 0.99088 0.989867 2.3209 0.989867 3.963L 0.989867 5.94424C 0.989867 7.58582 2.31904 8.91636 3.95895 8.91636C 4.23123 8.91636 4.45362 9.13898 4.45362 9.41206C 4.45362 9.68462 4.23123 9.90724 3.95895 9.90724C 1.77241 9.90724 1.07037e-07 8.1325 1.07037e-07 5.94424L 1.07037e-07 3.963C 1.07037e-07 1.77422 1.77241 2.69852e-07 3.95895 2.69852e-07C 6.14601 2.69852e-07 7.91789 1.7789 7.91789 3.96768L 7.91789 5.94216C 7.91789 6.75463 7.67212 7.53693 7.21797 8.19492Z"/>
<path id="path1_fill" d="M 0 11.4472L 0 4.90738C 0 3.53939 0.746687 2.35814 1.98181 1.77298L 5.46167 0.0476478C 5.70797 -0.0693852 6.00415 0.0367248 6.12055 0.283274C 6.23694 0.529824 6.13146 0.826308 5.88516 0.943341L 2.4053 2.66815C 1.51624 3.08999 0.989867 3.92222 0.989867 4.90738L 0.989867 11.4472C 0.989867 11.7203 0.767471 11.9424 0.494674 11.9424C 0.222395 11.9424 0 11.7203 0 11.4472Z"/>
</defs>
</svg>
