<svg width="16" height="16" viewBox="0 0 16 16" fill="none" xmlns="http://www.w3.org/2000/svg">
<path d="M4.66658 6H1.33325V4.66667H4.66658V6ZM4.66658 8H1.33325V9.33333H4.66658V8ZM13.7266 12.6667L11.1733 10.1133C10.6399 10.46 10.0133 10.6667 9.33325 10.6667C7.49325 10.6667 5.99992 9.17333 5.99992 7.33333C5.99992 5.49333 7.49325 4 9.33325 4C11.1733 4 12.6666 5.49333 12.6666 7.33333C12.6666 8.01333 12.4599 8.64 12.1133 9.16667L14.6666 11.7267L13.7266 12.6667ZM11.3333 7.33333C11.3333 6.23333 10.4333 5.33333 9.33325 5.33333C8.23325 5.33333 7.33325 6.23333 7.33325 7.33333C7.33325 8.43333 8.23325 9.33333 9.33325 9.33333C10.4333 9.33333 11.3333 8.43333 11.3333 7.33333ZM1.33325 12.6667H7.99992V11.3333H1.33325V12.6667Z" fill="#3A4348"/>
</svg>
