<svg width="12" height="12" viewBox="0 0 12 12" fill="none" xmlns="http://www.w3.org/2000/svg">
<g clip-path="url(#clip0_2104_3485)">
<path d="M9.9502 10.5H2.0498C1.86596 10.5008 1.68549 10.4527 1.52637 10.3606C1.36725 10.2686 1.23543 10.1358 1.14453 9.97601C1.05016 9.81451 1.00049 9.63081 1.00049 9.44376C1.00049 9.25671 1.05016 9.07302 1.14453 8.91151L5.09473 2.02751C5.18526 1.86713 5.31645 1.73374 5.47559 1.64103C5.63472 1.54833 5.81583 1.49966 6 1.50001C6.18448 1.49915 6.36586 1.54753 6.52539 1.64017C6.68492 1.73282 6.81703 1.86636 6.90771 2.02701L10.8574 8.91101C10.9512 9.07291 11.0005 9.25681 11 9.44392C10.9995 9.63103 10.9492 9.81465 10.8545 9.97601C10.7637 10.1357 10.6321 10.2683 10.4731 10.3604C10.3142 10.4525 10.1339 10.5006 9.9502 10.5ZM5.5 7.50001V8.50001H6.5V7.50001H5.5ZM6 4.00001C5.86739 4.00001 5.74025 4.05269 5.64648 4.14646C5.55272 4.24023 5.5 4.3674 5.5 4.50001V6.00001C5.5 6.13262 5.55272 6.2598 5.64648 6.35357C5.74025 6.44733 5.86739 6.50001 6 6.50001C6.13261 6.50001 6.25975 6.44733 6.35352 6.35357C6.44728 6.2598 6.5 6.13262 6.5 6.00001V4.50001C6.5 4.3674 6.44728 4.24023 6.35352 4.14646C6.25975 4.05269 6.13261 4.00001 6 4.00001Z" fill="url(#paint0_linear_2104_3485)"/>
</g>
<defs>
<linearGradient id="paint0_linear_2104_3485" x1="6.00025" y1="4.86601" x2="6.00025" y2="10.383" gradientUnits="userSpaceOnUse">
<stop stop-color="#FF5E57"/>
<stop offset="1" stop-color="#F7372F"/>
</linearGradient>
<clipPath id="clip0_2104_3485">
<rect width="12" height="12" fill="white"/>
</clipPath>
</defs>
</svg>
