<?xml version="1.0" standalone="no"?>
<!DOCTYPE svg PUBLIC "-//W3C//DTD SVG 20010904//EN"
 "http://www.w3.org/TR/2001/REC-SVG-20010904/DTD/svg10.dtd">
<svg version="1.0" xmlns="http://www.w3.org/2000/svg"
 width="540.000000pt" height="540.000000pt" viewBox="0 0 540.000000 540.000000"
 preserveAspectRatio="xMidYMid meet">
<metadata>
Created by potrace 1.11, written by Peter Selinger 2001-2013
</metadata>
<g transform="translate(0.000000,540.000000) scale(0.100000,-0.100000)"
fill="#000000" stroke="none">
<path d="M2490 5190 c-147 -13 -282 -37 -429 -76 -176 -46 -295 -91 -469 -176
-716 -352 -1220 -1026 -1359 -1818 -31 -178 -42 -494 -24 -671 33 -312 117
-599 256 -875 376 -747 1098 -1256 1925 -1359 161 -20 459 -20 620 0 551 69
1068 321 1460 715 373 374 611 838 701 1364 30 173 37 503 15 690 -98 846
-618 1582 -1381 1956 -241 118 -478 192 -737 230 -153 23 -439 33 -578 20z
m760 -1535 l0 -415 410 0 410 0 0 -545 0 -545 -410 0 -410 0 0 -410 0 -410
-550 0 -550 0 0 410 0 410 -410 0 -410 0 0 545 0 545 410 0 410 0 0 415 0 415
550 0 550 0 0 -415z"/>
</g>
</svg>
