<svg width="14" height="14" viewBox="0 0 14 14" fill="none" xmlns="http://www.w3.org/2000/svg">
<path d="M11.666 1.16669H4.66602C4.02435 1.16669 3.49935 1.69169 3.49935 2.33335V9.33335C3.49935 9.97502 4.02435 10.5 4.66602 10.5H11.666C12.3077 10.5 12.8327 9.97502 12.8327 9.33335V2.33335C12.8327 1.69169 12.3077 1.16669 11.666 1.16669ZM11.666 9.33335H4.66602V2.33335H11.666V9.33335ZM2.33268 3.50002H1.16602V11.6667C1.16602 12.3084 1.69102 12.8334 2.33268 12.8334H10.4993V11.6667H2.33268V3.50002ZM9.33268 7.00002V5.25002C9.33268 4.92919 9.07018 4.66669 8.74935 4.66669H7.58268V7.58335H8.74935C9.07018 7.58335 9.33268 7.32085 9.33268 7.00002ZM8.16602 5.25002H8.74935V7.00002H8.16602V5.25002ZM10.4993 6.41669H11.0827V5.83335H10.4993V5.25002H11.0827V4.66669H9.91602V7.58335H10.4993V6.41669ZM5.83268 6.41669H6.41602C6.73685 6.41669 6.99935 6.15419 6.99935 5.83335V5.25002C6.99935 4.92919 6.73685 4.66669 6.41602 4.66669H5.24935V7.58335H5.83268V6.41669ZM5.83268 5.25002H6.41602V5.83335H5.83268V5.25002Z" fill="#00A2F4"/>
</svg>
