<svg width="284" height="284" viewBox="0 0 284 284" version="1.1" xmlns="http://www.w3.org/2000/svg" xmlns:xlink="http://www.w3.org/1999/xlink">
<title>elab</title>
<desc>Created using Figma</desc>
<g id="Canvas" transform="translate(905 139)">
<g id="elab">
<g id="path16">
<use xlink:href="#path0_fill" transform="matrix(0.133333 0 0 -0.133333 -742.776 77.2165)" fill="#C60C30"/>
</g>
<g id="path18">
<use xlink:href="#path1_fill" transform="matrix(0.133333 0 0 -0.133333 -904.755 144.708)" fill="#005293"/>
</g>
</g>
</g>
<defs>
<path id="path0_fill" fill-rule="evenodd" d="M 50.62 101.238L 556.8 101.238C 584.68 101.238 607.42 78.5 607.42 50.621C 607.42 22.738 584.68 -8.78906e-06 556.8 -8.78906e-06L 50.62 -8.78906e-06C 22.74 -8.78906e-06 5.37109e-05 22.738 5.37109e-05 50.621C 5.37109e-05 78.5 22.74 101.238 50.62 101.238ZM 303.71 877.394L 222.64 769.324C 209.46 751.734 202.47 730.644 202.47 708.664C 202.47 652.734 247.78 607.424 303.71 607.424C 359.64 607.424 404.95 652.734 404.95 708.664C 404.95 730.644 397.96 751.734 384.77 769.324L 303.71 877.394ZM 303.71 506.184C 191.9 506.184 101.24 596.864 101.24 708.664C 101.24 752.544 115.33 794.964 141.66 830.074L 263.22 992.124C 273.09 1005.29 287.25 1012.37 303.71 1012.37C 320.17 1012.37 334.33 1005.29 344.2 992.124L 465.76 830.064C 492.09 794.964 506.19 752.544 506.19 708.664C 506.19 596.864 415.52 506.184 303.71 506.184Z"/>
<path id="path1_fill" fill-rule="evenodd" d="M 1104.96 809.898C 1110.55 794.068 1113.6 777.028 1113.6 759.278L 1113.6 253.094C 1113.6 169.512 1181.88 101.234 1265.46 101.234L 1771.64 101.234C 1855.22 101.234 1923.5 169.512 1923.5 253.094L 1923.5 759.278C 1923.5 777.028 1926.55 794.068 1932.14 809.898L 1104.96 809.898ZM 961.74 911.138L 2075.36 911.138C 2103.23 911.138 2125.98 888.398 2125.98 860.518C 2125.98 832.638 2103.23 809.898 2075.36 809.898C 2047.38 809.898 2024.74 787.248 2024.74 759.278L 2024.74 253.094C 2024.74 113.637 1911.1 7.32422e-07 1771.64 7.32422e-07L 1265.46 7.32422e-07C 1126 7.32422e-07 1012.36 113.637 1012.36 253.094L 1012.36 759.278C 1012.36 787.248 989.71 809.898 961.74 809.898C 933.86 809.898 911.12 832.638 911.12 860.518C 911.12 888.398 933.86 911.138 961.74 911.138ZM 1076.32 2111.16L 1505.83 1681.65C 1525.54 1661.93 1525.54 1629.78 1505.83 1610.06C 1486.12 1590.35 1453.96 1590.35 1434.25 1610.06C 1414.47 1629.84 1382.44 1629.84 1362.66 1610.06L 432.043 679.448C 333.219 580.621 172.945 580.621 74.121 679.448C -24.707 778.268 -24.707 938.548 74.121 1037.37L 1004.73 1967.99C 1024.51 1987.77 1024.51 2019.8 1004.73 2039.57C 985.02 2059.29 985.02 2091.44 1004.73 2111.16C 1024.45 2130.87 1056.6 2130.87 1076.32 2111.16ZM 1106 1938.31C 1098.76 1923.15 1088.87 1908.96 1076.32 1896.4L 145.703 965.788C 86.39 906.468 86.387 810.348 145.703 751.028C 205.019 691.718 301.148 691.718 360.461 751.028L 1291.07 1681.65C 1303.62 1694.19 1317.83 1704.09 1332.98 1711.33L 1106 1938.31Z"/>
</defs>
</svg>
