<?xml version="1.0" encoding="utf-8"?>
<!-- Generator: Adobe Illustrator 23.0.0, SVG Export Plug-In . SVG Version: 6.00 Build 0)  -->
<svg version="1.1" id="Vrstva_1" xmlns="http://www.w3.org/2000/svg" xmlns:xlink="http://www.w3.org/1999/xlink" x="0px" y="0px"
	 viewBox="0 0 283.5 283.5" style="enable-background:new 0 0 283.5 283.5;" xml:space="preserve">
<style type="text/css">
	.st0{fill-rule:evenodd;clip-rule:evenodd;fill:#D91A35;}
	.st1{fill:#005B96;}
	.st2{fill:#D91A35;}
	.st3{fill-rule:evenodd;clip-rule:evenodd;fill:#005B96;}
</style>
<title>eobjednanie</title>
<g>
	<path class="st0" d="M249.5,87.8h27c3.7,0,6.7-3,6.7-6.7V40.7c0-3.7-3-6.7-6.7-6.7h-27V7c0-3.7-3-6.7-6.7-6.7h-40.4
		c-3.7,0-6.7,3-6.7,6.7v27h-27c-3.7,0-6.7,3-6.7,6.7v40.4c0,3.7,3,6.7,6.7,6.7h27v27c0,3.7,3,6.7,6.7,6.7l0,0h40.4
		c3.7,0,6.7-3,6.7-6.7V87.8z M236.1,108.1h-27V74.4h-33.7v-27h33.7V13.7h27v33.7h33.7v27h-33.7L236.1,108.1z"/>
	<circle class="st1" cx="52.7" cy="178.3" r="9.6"/>
	<circle class="st2" cx="104.9" cy="178.3" r="9.6"/>
	<circle class="st1" cx="157" cy="178.3" r="9.6"/>
	<circle class="st1" cx="209.2" cy="178.3" r="9.6"/>
	<circle class="st1" cx="52.7" cy="223.5" r="9.6"/>
	<circle class="st1" cx="104.9" cy="223.5" r="9.6"/>
	<circle class="st1" cx="157" cy="223.5" r="9.6"/>
	<circle class="st1" cx="209.2" cy="223.5" r="9.6"/>
	<circle class="st1" cx="52.7" cy="133.2" r="9.6"/>
	<circle class="st1" cx="104.9" cy="133.2" r="9.6"/>
	<path class="st3" d="M276.8,107.8c-3.7-0.2-6.9,2.7-7,6.4c0,0.2,0,0.4,0,0.6v140.5c0,8-6.5,14.4-14.4,14.4H28.2
		c-8,0-14.4-6.5-14.4-14.4V62.6c0-0.1,0-0.1,0.1-0.1h126.3c3.7,0,6.7-3,6.7-6.7V42V27.6c0-3.7,3-6.8,6.8-6.8c0,0,0,0,0,0h23
		c3.7,0,6.7-3,6.7-6.7V6.9c0-3.7-3-6.7-6.7-6.7h-74.5v0.1h-74C12.8,0.3,0.3,12.8,0.2,28.2v227.1c0,15.4,12.5,27.9,27.9,27.9h227.1
		c15.4,0,27.9-12.5,27.9-27.9V114.8C283.4,111.1,280.5,107.9,276.8,107.8z"/>
</g>
</svg>
