<svg width="284" height="284" viewBox="0 0 284 284" version="1.1" xmlns="http://www.w3.org/2000/svg" xmlns:xlink="http://www.w3.org/1999/xlink">
<title>erecept</title>
<desc>Created using Figma</desc>
<g id="Canvas" transform="translate(466 647)">
<g id="erecept">
<g id="path16">
<use xlink:href="#path0_fill" transform="matrix(0.133333 0 0 -0.133333 -465.756 -363.292)" fill="#145798"/>
</g>
<g id="path18">
<use xlink:href="#path1_fill" transform="matrix(0.133333 0 0 -0.133333 -303.776 -525.272)" fill="#DD1634"/>
</g>
</g>
</g>
<defs>
<path id="path0_fill" fill-rule="evenodd" d="M 1265.47 2125.99L 253.094 2125.99C 113.637 2125.99 7.32422e-07 2012.35 7.32422e-07 1872.89L 7.32422e-07 253.094C 7.32422e-07 113.637 113.637 7.32422e-07 253.094 7.32422e-07L 1872.89 7.32422e-07C 2012.35 7.32422e-07 2125.99 113.637 2125.99 253.094L 2125.99 1265.47C 2125.99 1293.35 2103.25 1316.09 2075.37 1316.09C 2047.49 1316.09 2024.75 1293.35 2024.75 1265.47L 2024.75 253.094C 2024.75 169.512 1956.47 101.234 1872.89 101.234L 253.094 101.234C 169.512 101.234 101.234 169.512 101.234 253.094L 101.234 1872.89C 101.234 1956.47 169.512 2024.75 253.094 2024.75L 1265.47 2024.75C 1293.35 2024.75 1316.09 2047.49 1316.09 2075.37C 1316.09 2103.25 1293.35 2125.99 1265.47 2125.99L 1265.47 2125.99ZM 303.711 404.949L 1822.27 404.949C 1850.15 404.949 1872.89 427.688 1872.89 455.566C 1872.89 483.445 1850.15 506.184 1822.27 506.184L 303.711 506.184C 275.828 506.184 253.094 483.445 253.094 455.566C 253.094 427.688 275.828 404.949 303.711 404.949ZM 303.711 809.898L 1822.27 809.898C 1850.15 809.898 1872.89 832.638 1872.89 860.518C 1872.89 888.398 1850.15 911.138 1822.27 911.138L 303.711 911.138C 275.828 911.138 253.094 888.398 253.094 860.518C 253.094 832.638 275.828 809.898 303.711 809.898ZM 303.711 1214.85L 1012.37 1214.85C 1040.25 1214.85 1062.99 1237.59 1062.99 1265.47C 1062.99 1293.35 1040.25 1316.09 1012.37 1316.09L 303.711 1316.09C 275.828 1316.09 253.094 1293.35 253.094 1265.47C 253.094 1237.59 275.828 1214.85 303.711 1214.85Z"/>
<path id="path1_fill" fill-rule="evenodd" d="M 556.8 101.24L 354.33 101.24L 354.33 354.33L 101.24 354.33L 101.24 556.8L 354.33 556.8L 354.33 809.9L 556.8 809.9L 556.8 556.8L 809.9 556.8L 809.9 354.33L 556.8 354.33L 556.8 101.24ZM 658.04 253.09L 860.52 253.09C 888.4 253.09 911.14 275.83 911.14 303.71L 911.14 607.42C 911.14 635.3 888.4 658.04 860.52 658.04L 658.04 658.04L 658.04 860.52C 658.04 888.4 635.3 911.14 607.42 911.14L 303.71 911.14C 275.83 911.14 253.09 888.4 253.09 860.52L 253.09 658.04L 50.62 658.04C 22.74 658.04 5.37109e-05 635.3 5.37109e-05 607.42L 5.37109e-05 303.71C 5.37109e-05 275.83 22.74 253.09 50.62 253.09L 253.09 253.09L 253.09 50.62C 253.09 22.74 275.83 5.37109e-05 303.71 5.37109e-05L 607.42 5.37109e-05C 635.3 5.37109e-05 658.04 22.74 658.04 50.62L 658.04 253.09Z"/>
</defs>
</svg>
