<svg width="284" height="284" viewBox="0 0 284 284" version="1.1" xmlns="http://www.w3.org/2000/svg" xmlns:xlink="http://www.w3.org/1999/xlink">
<title>evysetrenie</title>
<desc>Created using Figma</desc>
<g id="Canvas" transform="translate(905 647)">
<g id="evysetrenie">
<g id="path16">
<use xlink:href="#path0_fill" transform="matrix(0.133333 0 0 -0.133333 -904.756 -363.292)" fill="#ffffff"/>
</g>
<g id="path18">
<use xlink:href="#path1_fill" transform="matrix(0.133333 0 0 -0.133333 -850.763 -471.279)" fill="#ffffff"/>
</g>
</g>
</g>
<defs>
<path id="path0_fill" fill-rule="evenodd" d="M 253.094 1214.85C 336.957 1214.85 404.949 1146.86 404.949 1062.99C 404.949 979.118 336.957 911.138 253.094 911.138C 169.223 911.138 101.234 979.118 101.234 1062.99C 101.234 1146.86 169.223 1214.85 253.094 1214.85L 253.094 1214.85ZM 253.094 1316.09C 377.031 1316.09 480.152 1226.99 501.934 1109.36C 619.555 1087.57 708.658 984.438 708.658 860.518L 708.658 354.328C 708.658 214.535 821.958 101.234 961.758 101.234C 1101.55 101.234 1214.85 214.535 1214.85 354.328L 1214.85 658.048C 1214.85 685.918 1237.59 708.658 1265.47 708.658C 1293.35 708.658 1316.09 685.918 1316.09 658.048L 1316.09 354.328C 1316.09 158.652 1157.43 7.32422e-07 961.758 7.32422e-07C 766.078 7.32422e-07 607.422 158.652 607.422 354.328L 607.422 860.518C 607.422 929.048 562.055 986.948 499.707 1005.85C 473.801 893.588 373.219 809.898 253.094 809.898C 113.313 809.898 7.32422e-07 923.208 7.32422e-07 1062.99C 7.32422e-07 1202.77 113.313 1316.09 253.094 1316.09"/>
<path id="path1_fill" fill-rule="evenodd" d="M 1265.47 1316.09L 1366.7 1316.09C 1562.38 1316.09 1721.04 1157.43 1721.04 961.75C 1721.04 878.78 1691.97 798.61 1638.9 734.92L 1132.82 127.62C 1065.34 46.64 966.049 -1.95312e-05 860.519 -1.95312e-05C 754.979 -1.95312e-05 655.699 46.64 588.219 127.62L 82.133 734.92C 29.059 798.61 5.85937e-06 878.78 5.85937e-06 961.75C 5.85937e-06 1157.43 158.657 1316.09 354.329 1316.09L 455.569 1316.09C 483.449 1316.09 506.189 1293.35 506.189 1265.47C 506.189 1237.59 483.449 1214.85 455.569 1214.85L 354.329 1214.85C 214.535 1214.85 101.235 1101.55 101.235 961.75C 101.235 902.47 121.985 845.24 159.907 799.73L 665.989 192.43C 714.249 134.52 785.039 101.24 860.519 101.24C 935.999 101.24 1006.79 134.52 1055.05 192.43L 1561.13 799.73C 1599.05 845.24 1619.8 902.47 1619.8 961.75C 1619.8 1101.55 1506.5 1214.85 1366.7 1214.85L 1265.47 1214.85C 1237.59 1214.85 1214.85 1237.59 1214.85 1265.47C 1214.85 1293.35 1237.59 1316.09 1265.47 1316.09"/>
</defs>
</svg>
