<?xml version="1.0" encoding="UTF-8" standalone="no"?><!DOCTYPE svg PUBLIC "-//W3C//DTD SVG 1.1//EN" "http://www.w3.org/Graphics/SVG/1.1/DTD/svg11.dtd"><svg width="100%" height="100%" viewBox="0 0 201 42" version="1.1" xmlns="http://www.w3.org/2000/svg" xmlns:xlink="http://www.w3.org/1999/xlink" xml:space="preserve" xmlns:serif="http://www.serif.com/" style="fill-rule:evenodd;clip-rule:evenodd;stroke-linejoin:round;stroke-miterlimit:1.41421;"><g><path d="M179.489,4.238c2.188,-2.235 5.188,-3.516 8.369,-3.516c6.47,0 11.716,5.246 11.716,11.716c0,2.667 -0.899,5.233 -2.565,7.316l-16.54,20.667c-0.432,0.54 -1.225,0.628 -1.765,0.196c-0.539,-0.433 -0.627,-1.225 -0.195,-1.765l16.54,-20.667c1.31,-1.637 2.014,-3.65 2.014,-5.747c0,-5.085 -4.121,-9.206 -9.205,-9.206c-2.909,0 -5.622,1.362 -7.366,3.683c-0.244,0.326 -0.595,0.501 -1.003,0.501c-0.408,0 -0.759,-0.175 -1.004,-0.501c-1.744,-2.321 -4.456,-3.683 -7.365,-3.683c-5.085,0 -9.206,4.121 -9.206,9.206c0,2.097 0.705,4.11 2.015,5.747c0.432,0.54 0.344,1.332 -0.196,1.764c-0.539,0.432 -1.332,0.344 -1.764,-0.195c-1.667,-2.083 -2.565,-4.649 -2.565,-7.316c0,-6.47 5.246,-11.716 11.716,-11.716c3.18,0 6.181,1.281 8.369,3.516" style="fill:#da1935;"/><path d="M187.897,0.278c5.234,0.024 10.215,3.682 11.67,8.867c1.034,3.685 0.201,7.824 -2.171,10.835c-5.511,6.928 -11.017,13.861 -16.594,20.735c-0.692,0.832 -2.2,0.766 -2.777,-0.215c-0.343,-0.583 -0.296,-1.363 0.123,-1.908c5.482,-6.944 11.074,-13.799 16.583,-20.721c2.17,-2.755 2.49,-6.813 0.674,-9.885c-1.382,-2.339 -3.9,-3.967 -6.596,-4.258c-3.01,-0.325 -6.127,1.046 -7.976,3.474c-0.097,0.124 -0.129,0.153 -0.201,0.219c-0.678,0.625 -1.881,0.555 -2.487,-0.219c-2.26,-2.964 -6.35,-4.245 -9.835,-3.065c-2.945,0.996 -5.262,3.654 -5.814,6.749c-0.432,2.419 0.208,5.014 1.722,6.948c1.544,1.972 -1.332,3.795 -2.637,2.147c-1.15,-1.453 -2.065,-3.369 -2.427,-5.367c-0.484,-2.676 -0.044,-5.512 1.239,-7.908c1.702,-3.179 4.885,-5.533 8.425,-6.211c3.767,-0.722 7.835,0.456 10.636,3.087l0.035,0.033c2.186,-2.079 5.172,-3.293 8.214,-3.337c0.065,0 0.129,-0.001 0.194,0Zm-16.814,0.888c-4.833,0.023 -9.452,3.415 -10.807,8.186c-0.944,3.323 -0.259,7.067 1.819,9.839c0.381,0.508 1.161,0.876 1.557,0.183c0.176,-0.309 0.098,-0.698 -0.134,-0.992c-2.37,-3.044 -2.7,-7.484 -0.711,-10.849c1.448,-2.449 4.024,-4.203 6.844,-4.634c3.324,-0.508 6.868,0.852 8.993,3.496c0.383,0.477 1.05,0.819 1.485,0.263c1.327,-1.741 3.233,-3.039 5.358,-3.576c2.866,-0.724 6.055,-0.045 8.374,1.8c1.882,1.497 3.172,3.711 3.535,6.087c0.4,2.611 -0.325,5.367 -1.968,7.453c-5.51,6.924 -11.19,13.712 -16.585,20.724c-0.413,0.551 0.225,1.602 1.007,1.216c0.102,-0.05 0.192,-0.123 0.265,-0.211c5.574,-6.87 11.076,-13.799 16.584,-20.722c2.732,-3.469 3.212,-8.561 0.988,-12.512c-1.62,-2.878 -4.552,-4.978 -7.799,-5.568c-3.604,-0.656 -7.484,0.555 -10.082,3.2l-0.317,-0.311l-0.317,0.311c-2.088,-2.125 -5.02,-3.369 -8.016,-3.383c-0.024,0 -0.048,0 -0.073,0Z" style="fill:#da1935;fill-rule:nonzero;"/><path d="M3.419,34.483l0,1.028c0,1.314 1.077,2.39 2.392,2.39l11.228,0c0.94,0 1.708,0.767 1.708,1.708c0,0.941 -0.768,1.708 -1.708,1.708l-11.228,0c-3.2,0 -5.807,-2.606 -5.807,-5.806l0,-5.47c0,-3.201 2.607,-5.808 5.807,-5.808l9.588,0c3.201,0 5.807,2.607 5.807,5.808l0,2.735c0,0.94 -0.767,1.707 -1.708,1.707l-16.079,0Zm14.371,-3.415l0,-1.027c0,-1.315 -1.076,-2.391 -2.391,-2.391l-9.588,0c-1.315,0 -2.392,1.076 -2.392,2.391l0,1.027l14.371,0Z" style="fill:#da1935;"/><path d="M157.221,34.483l0,1.028c0,1.314 1.076,2.39 2.391,2.39l11.228,0c0.941,0 1.708,0.767 1.708,1.708c0,0.941 -0.767,1.708 -1.708,1.708l-11.228,0c-3.2,0 -5.807,-2.606 -5.807,-5.806l0,-5.47c0,-3.201 2.607,-5.808 5.807,-5.808l9.589,0c3.2,0 5.807,2.607 5.807,5.808l0,2.735c0,0.94 -0.768,1.707 -1.709,1.707l-16.078,0Zm14.37,-3.415l0,-1.027c0,-1.315 -1.076,-2.391 -2.39,-2.391l-9.589,0c-1.315,0 -2.391,1.076 -2.391,2.391l0,1.027l14.37,0Zm-22.299,-5.127l0,13.668c0,0.941 -0.767,1.708 -1.708,1.708c-0.941,0 -1.708,-0.767 -1.708,-1.708l0,-13.668c0,-0.94 0.767,-1.708 1.708,-1.708c0.941,0 1.708,0.768 1.708,1.708Zm-19.807,11.96l1.825,0l7.195,-12.797c0.461,-0.819 1.507,-1.112 2.326,-0.651c0.818,0.46 1.112,1.506 0.651,2.325l-7.684,13.668c-0.31,0.552 -0.856,0.871 -1.489,0.871l-3.823,0c-0.633,0 -1.178,-0.319 -1.489,-0.871l-7.684,-13.668c-0.46,-0.819 -0.167,-1.865 0.652,-2.325c0.819,-0.461 1.865,-0.168 2.325,0.651l7.195,12.797Zm18.099,-20.499c0.943,0 1.708,0.765 1.708,1.708c0,0.943 -0.765,1.708 -1.708,1.708c-0.944,0 -1.708,-0.765 -1.708,-1.708c0,-0.943 0.764,-1.708 1.708,-1.708Zm-119.082,19.577l0,0.922l14.7,0c0.94,0 1.708,0.767 1.708,1.708c0,0.941 -0.768,1.708 -1.708,1.708l-16.408,0c-0.941,0 -1.707,-0.767 -1.707,-1.708l0,-3.823c0,-0.73 0.434,-1.352 1.119,-1.603l15.288,-5.611l0,-0.922l-14.7,0c-0.941,0 -1.707,-0.768 -1.707,-1.708c0,-0.941 0.766,-1.709 1.707,-1.709l16.408,0c0.94,0 1.708,0.768 1.708,1.709l0,3.823c0,0.729 -0.435,1.352 -1.12,1.603l-15.288,5.611Zm43.297,-17.869l0,16.4c0,3.201 -2.607,5.807 -5.807,5.807l-11.245,0c-3.2,0 -5.807,-2.606 -5.807,-5.807l0,-5.47c0,-3.2 2.607,-5.807 5.807,-5.807l8.318,0c0.941,0 1.707,0.768 1.707,1.708c0,0.941 -0.767,1.708 -1.707,1.708l-8.318,0c-1.313,0 -2.391,1.078 -2.391,2.391l0,5.47c0,1.315 1.076,2.391 2.391,2.391l11.245,0c1.315,0 2.392,-1.076 2.392,-2.391l0,-16.4c0,-0.941 0.766,-1.708 1.707,-1.708c0.941,0 1.708,0.767 1.708,1.708Zm4.795,20.499l0,-9.569c0,-3.2 2.606,-5.807 5.807,-5.807l8.745,0c0.94,0 1.707,0.768 1.707,1.708c0,0.941 -0.767,1.708 -1.707,1.708l-8.745,0c-1.315,0 -2.391,1.077 -2.391,2.391l0,9.569c0,0.941 -0.768,1.708 -1.708,1.708c-0.941,0 -1.708,-0.767 -1.708,-1.708Zm36.043,-8.541l0,-1.028c0,-1.314 -1.077,-2.391 -2.392,-2.391l-11.228,0c-0.94,0 -1.708,-0.767 -1.708,-1.708c0,-0.94 0.768,-1.708 1.708,-1.708l11.228,0c3.201,0 5.807,2.607 5.807,5.807l0,9.569c0,0.941 -0.767,1.708 -1.707,1.708l-14.371,0c-2.825,0 -5.124,-2.3 -5.124,-5.124l0,-0.002c0,-2.824 2.299,-5.123 5.124,-5.123l12.663,0Zm0,6.833l0,-3.418l-12.663,0c-0.939,0 -1.708,0.769 -1.708,1.708l0,0.002c0,0.939 0.769,1.708 1.708,1.708l12.663,0" style="fill:#005b97;"/></g></svg>