<svg width="284" height="284" viewBox="0 0 284 284" version="1.1" xmlns="http://www.w3.org/2000/svg" xmlns:xlink="http://www.w3.org/1999/xlink">
<title>pacientsky-sumar</title>
<desc>Created using Figma</desc>
<g id="Canvas" transform="translate(27 139)">
<g id="pacientsky-sumar">
<g id="path16">
<use xlink:href="#path0_fill" transform="matrix(0.133333 0 0 -0.133333 60.984 144.708)" fill="#005293"/>
</g>
<g id="path18">
<use xlink:href="#path1_fill" transform="matrix(0.133333 0 0 -0.133333 -26.7557 144.708)" fill="#C60C30"/>
</g>
</g>
</g>
<defs>
<path id="path0_fill" fill-rule="evenodd" d="M 738.31 1288.59L 1265.22 1039.15C 1391.53 979.348 1467.94 858.648 1467.94 718.888L 1467.94 50.617C 1467.94 22.734 1445.2 7.32422e-07 1417.32 7.32422e-07C 1389.44 7.32422e-07 1366.7 22.734 1366.7 50.617L 1366.7 718.888C 1366.7 819.518 1312.85 904.588 1221.9 947.648L 636.36 1224.85C 621.09 1232.08 611.16 1245.07 608.19 1261.71C 605.22 1278.35 610.05 1293.98 621.89 1306.04C 677.82 1363.06 708.66 1438.94 708.66 1518.81L 708.66 1720.55C 708.65 1888.28 572.78 2024.75 404.94 2024.75C 237.19 2024.75 101.23 1888.79 101.23 1721.04L 101.23 1518.56C 101.23 1350.81 237.19 1214.86 404.94 1214.86C 432.82 1214.86 455.56 1192.12 455.56 1164.24C 455.56 1136.36 432.82 1113.62 404.94 1113.62C 181.32 1113.62 4.88281e-06 1294.94 4.88281e-06 1518.56L 4.88281e-06 1721.04C 4.88281e-06 1944.67 181.31 2125.99 404.94 2125.99C 628.66 2125.99 809.89 1944.15 809.89 1720.55L 809.89 1518.81C 809.89 1435.77 784.76 1355.81 738.31 1288.59Z"/>
<path id="path1_fill" fill-rule="evenodd" d="M 607.359 567.488L 428.031 101.234L 786.798 101.234L 607.359 567.488ZM 653.388 729.748C 654.278 727.798 655.058 725.798 655.698 723.758L 895.278 101.234L 1507.47 101.234L 607.629 1118.83L 519.676 1077.19L 653.388 729.748ZM 320.445 103.523L 553.109 708.448L 427.918 1033.75L 246.035 947.648C 155.086 904.588 101.234 819.518 101.234 718.888L 101.234 354.328C 101.234 226.477 197.012 120.184 320.445 103.523ZM 7.32422e-07 354.328L 7.32422e-07 718.888C 7.32422e-07 858.648 76.402 979.348 202.715 1039.15L 433.734 1148.51L 433.914 1148.6L 598.691 1226.61C 619.367 1236.39 643.113 1231.53 658.268 1214.38L 1657.72 84.148C 1671.21 68.891 1674.31 48.391 1665.95 29.82C 1657.58 11.254 1640.17 7.32422e-07 1619.8 7.32422e-07L 354.328 7.32422e-07C 159.109 7.32422e-07 7.32422e-07 159.109 7.32422e-07 354.328Z"/>
</defs>
</svg>
