<svg width="16" height="16" viewBox="0 0 16 16" fill="none" xmlns="http://www.w3.org/2000/svg">
<path d="M6.66654 9.06668L10.5999 5.13335C10.7221 5.01112 10.8776 4.95001 11.0665 4.95001C11.2554 4.95001 11.411 5.01112 11.5332 5.13335C11.6554 5.25557 11.7165 5.41112 11.7165 5.60001C11.7165 5.7889 11.6554 5.94446 11.5332 6.06668L7.1332 10.4667C6.99987 10.6 6.84431 10.6667 6.66654 10.6667C6.48876 10.6667 6.3332 10.6 6.19987 10.4667L4.46654 8.73335C4.34431 8.61112 4.2832 8.45557 4.2832 8.26668C4.2832 8.07779 4.34431 7.92223 4.46654 7.80001C4.58876 7.67779 4.74431 7.61668 4.9332 7.61668C5.12209 7.61668 5.27765 7.67779 5.39987 7.80001L6.66654 9.06668Z" fill="url(#paint0_linear_2296_5325)"/>
<defs>
<linearGradient id="paint0_linear_2296_5325" x1="7.99987" y1="4.95001" x2="7.99987" y2="10.6667" gradientUnits="userSpaceOnUse">
<stop stop-color="#34EB23"/>
<stop offset="1" stop-color="#2BC61C"/>
</linearGradient>
</defs>
</svg>
