<svg width="16" height="16" viewBox="0 0 16 16" fill="none" xmlns="http://www.w3.org/2000/svg">
<path d="M7.99984 5.33335C8.73317 5.33335 9.33317 4.73335 9.33317 4.00002C9.33317 3.26669 8.73317 2.66669 7.99984 2.66669C7.2665 2.66669 6.6665 3.26669 6.6665 4.00002C6.6665 4.73335 7.2665 5.33335 7.99984 5.33335ZM7.99984 6.66669C7.2665 6.66669 6.6665 7.26669 6.6665 8.00002C6.6665 8.73335 7.2665 9.33335 7.99984 9.33335C8.73317 9.33335 9.33317 8.73335 9.33317 8.00002C9.33317 7.26669 8.73317 6.66669 7.99984 6.66669ZM7.99984 10.6667C7.2665 10.6667 6.6665 11.2667 6.6665 12C6.6665 12.7334 7.2665 13.3334 7.99984 13.3334C8.73317 13.3334 9.33317 12.7334 9.33317 12C9.33317 11.2667 8.73317 10.6667 7.99984 10.6667Z" fill="#00A2F4"/>
</svg>
