<?xml version="1.0" standalone="no"?>
<!DOCTYPE svg PUBLIC "-//W3C//DTD SVG 20010904//EN"
 "http://www.w3.org/TR/2001/REC-SVG-20010904/DTD/svg10.dtd">
<svg version="1.0" xmlns="http://www.w3.org/2000/svg"
 width="500.000000pt" height="500.000000pt" viewBox="0 0 500.000000 500.000000"
 preserveAspectRatio="xMidYMid meet">
<metadata>
Created by potrace 1.11, written by Peter Selinger 2001-2013
</metadata>
<g transform="translate(0.000000,500.000000) scale(0.100000,-0.100000)"
fill="#000000" stroke="none">
<path d="M0 2500 l0 -2500 1348 0 c860 0 1389 4 1462 11 663 60 1174 273 1545
644 313 313 514 723 600 1222 61 360 61 886 0 1246 -86 499 -287 910 -600
1222 -313 313 -723 514 -1235 604 -282 50 -317 51 -1765 51 l-1355 0 0 -2500z
m1834 1595 c42 -8 116 -30 164 -50 145 -61 205 -75 318 -75 111 0 178 16 296
69 279 127 590 73 799 -139 78 -79 132 -178 154 -285 31 -150 11 -373 -49
-542 -67 -187 -73 -587 -15 -1028 43 -329 3 -597 -123 -809 -54 -92 -194 -232
-273 -273 -72 -38 -154 -60 -256 -69 -163 -14 -209 63 -145 245 45 129 60 231
60 401 -1 171 -18 258 -73 377 -67 142 -144 228 -238 263 -199 74 -382 -5
-495 -216 -62 -117 -89 -227 -95 -389 -6 -164 10 -285 57 -425 65 -195 23
-270 -139 -256 -166 15 -255 50 -371 146 -117 98 -218 270 -266 455 -38 147
-44 362 -15 580 55 414 47 801 -20 1005 -86 264 -83 521 8 693 38 72 173 204
250 245 156 82 309 108 467 77z"/>
</g>
</svg>
