<svg width="40" height="40" viewBox="0 0 40 40" fill="none" xmlns="http://www.w3.org/2000/svg">
<path d="M34.7476 5.18876C31.2404 1.73494 26.1762 0 19.5552 0H0V40H19.5552C26.1762 40 31.2404 38.2651 34.7476 34.8112C38.2549 31.3574 40 26.4257 40 20C40 13.5743 38.2549 8.64257 34.7476 5.18876Z" fill="white"/>
<path d="M34.7476 5.18876C31.2404 1.73494 26.1762 0 19.5552 0H0V40H19.5552C26.1762 40 31.2404 38.2651 34.7476 34.8112C38.2549 31.3574 40 26.4257 40 20C40 13.5743 38.2549 8.64257 34.7476 5.18876ZM28.7083 12.8514C28.6056 14.49 28.024 15.8394 28.024 15.8394C27.3225 19.4538 28.1266 24.0161 28.1266 24.0161C28.8281 30.506 24.9786 32.3373 24.4482 32.5462C24.4311 32.5462 24.3969 32.5623 24.3798 32.5783C23.7297 32.7872 23.0282 32.8996 22.3097 32.8996C21.9162 32.8996 21.574 32.6747 21.42 32.3534C21.3858 32.2892 21.3858 32.2088 21.3687 32.1285C21.3345 31.8394 21.3687 31.3735 21.6938 30.6345C21.6938 30.6345 23.0453 26.6827 20.9752 23.743C20.8383 23.5181 20.6843 23.3092 20.479 23.1325C19.9658 22.6827 19.2814 22.3936 18.5287 22.3936C17.7759 22.3936 17.0915 22.6827 16.5783 23.1325C16.3901 23.3092 16.219 23.5181 16.0821 23.743C14.012 26.6827 15.3636 30.6345 15.3636 30.6345C15.6715 31.3896 15.7228 31.8394 15.6886 32.1285C15.6886 32.2088 15.6715 32.2892 15.6373 32.3534C15.5004 32.6747 15.1583 32.8996 14.7476 32.8996C14.0291 32.8996 13.3276 32.7872 12.6775 32.5783C12.6604 32.5783 12.6433 32.5622 12.6091 32.5462C12.0787 32.3213 8.22926 30.506 8.93071 24.0161C8.93071 24.0161 9.73482 19.4377 9.03336 15.8394C9.03336 15.8394 8.45167 14.49 8.34902 12.8514C8.34902 12.6426 8.34902 12.4498 8.34902 12.241C8.36613 11.3092 8.55432 10.3133 9.13601 9.44578C10.1112 8.03213 11.805 7.08434 13.7382 7.08434C14.5937 7.08434 15.3978 7.29317 16.1334 7.61446H16.1677C16.8691 8 17.6732 8.2249 18.5458 8.2249C19.4183 8.2249 20.2224 8 20.9239 7.61446H20.9581C21.6766 7.27711 22.4808 7.08434 23.3533 7.08434C25.2866 7.08434 26.9803 8.01606 27.9555 9.44578C28.5372 10.3133 28.7254 11.2932 28.7425 12.241C28.7425 12.4498 28.7425 12.6586 28.7425 12.8514H28.7083Z" fill="url(#paint0_linear_2112_390)"/>
<defs>
<linearGradient id="paint0_linear_2112_390" x1="20" y1="0" x2="20" y2="40" gradientUnits="userSpaceOnUse">
<stop stop-color="#00A2F4"/>
<stop offset="1" stop-color="#018FEC"/>
</linearGradient>
</defs>
</svg>
